<svg width="29" height="34" viewBox="0 0 29 34" fill="none" xmlns="http://www.w3.org/2000/svg">
<g filter="url(#filter0_ddddd_4117_196)">
<path d="M25.4219 11.1897C25.0011 10.75 24.5658 10.2969 24.4018 9.89844C24.25 9.53348 24.2411 8.92857 24.2321 8.34263C24.2154 7.25335 24.1975 6.01897 23.3393 5.16071C22.481 4.30246 21.2467 4.2846 20.1574 4.26786C19.5714 4.25893 18.9665 4.25 18.6016 4.09821C18.2042 3.93415 17.75 3.49888 17.3103 3.07812C16.5402 2.33817 15.6652 1.5 14.5 1.5C13.3348 1.5 12.4609 2.33817 11.6897 3.07812C11.25 3.49888 10.7969 3.93415 10.3984 4.09821C10.0357 4.25 9.42857 4.25893 8.84263 4.26786C7.75335 4.2846 6.51897 4.30246 5.66071 5.16071C4.80246 6.01897 4.79018 7.25335 4.76786 8.34263C4.75893 8.92857 4.75 9.53348 4.59821 9.89844C4.43415 10.2958 3.99888 10.75 3.57812 11.1897C2.83817 11.9598 2 12.8348 2 14C2 15.1652 2.83817 16.0391 3.57812 16.8103C3.99888 17.25 4.43415 17.7031 4.59821 18.1016C4.75 18.4665 4.75893 19.0714 4.76786 19.6574C4.7846 20.7467 4.80246 21.981 5.66071 22.8393C6.51897 23.6975 7.75335 23.7154 8.84263 23.7321C9.42857 23.7411 10.0335 23.75 10.3984 23.9018C10.7958 24.0658 11.25 24.5011 11.6897 24.9219C12.4598 25.6618 13.3348 26.5 14.5 26.5C15.6652 26.5 16.5391 25.6618 17.3103 24.9219C17.75 24.5011 18.2031 24.0658 18.6016 23.9018C18.9665 23.75 19.5714 23.7411 20.1574 23.7321C21.2467 23.7154 22.481 23.6975 23.3393 22.8393C24.1975 21.981 24.2154 20.7467 24.2321 19.6574C24.2411 19.0714 24.25 18.4665 24.4018 18.1016C24.5658 17.7042 25.0011 17.25 25.4219 16.8103C26.1618 16.0402 27 15.1652 27 14C27 12.8348 26.1618 11.9609 25.4219 11.1897ZM19.596 11.9531L13.346 18.2031C13.2631 18.2861 13.1646 18.352 13.0562 18.3969C12.9478 18.4419 12.8316 18.465 12.7143 18.465C12.597 18.465 12.4808 18.4419 12.3724 18.3969C12.264 18.352 12.1655 18.2861 12.0826 18.2031L9.40402 15.5246C9.23648 15.357 9.14236 15.1298 9.14236 14.8929C9.14236 14.6559 9.23648 14.4287 9.40402 14.2612C9.57155 14.0936 9.79878 13.9995 10.0357 13.9995C10.2726 13.9995 10.4999 14.0936 10.6674 14.2612L12.7143 16.3092L18.3326 10.6897C18.4155 10.6068 18.514 10.541 18.6224 10.4961C18.7308 10.4512 18.847 10.4281 18.9643 10.4281C19.0816 10.4281 19.1978 10.4512 19.3062 10.4961C19.4145 10.541 19.513 10.6068 19.596 10.6897C19.6789 10.7727 19.7447 10.8712 19.7896 10.9796C19.8345 11.0879 19.8576 11.2041 19.8576 11.3214C19.8576 11.4387 19.8345 11.5549 19.7896 11.6633C19.7447 11.7717 19.6789 11.8702 19.596 11.9531Z" fill="#45B442"/>
<path d="M25.4219 16.8103C26.1618 16.0402 27 15.1652 27 14C27 12.8348 26.1618 11.9609 25.4219 11.1897L25.4122 11.1796C24.9944 10.743 24.5646 10.2938 24.4018 9.89844C24.2503 9.5342 24.2411 8.93095 24.2322 8.3461L24.2321 8.34263L24.2321 8.33835C24.2154 7.25011 24.1964 6.01785 23.3393 5.16071C22.4822 4.30358 21.2499 4.28465 20.1617 4.26792L20.1574 4.26786L20.1539 4.2678C19.569 4.25889 18.9658 4.2497 18.6016 4.09821C18.2054 3.93462 17.7526 3.50138 17.3141 3.08175L17.3103 3.07812C16.5402 2.33817 15.6652 1.5 14.5 1.5C13.3348 1.5 12.4609 2.33817 11.6897 3.07812L11.6796 3.08782C11.243 3.50555 10.7938 3.93541 10.3984 4.09821C10.0365 4.24967 9.43124 4.25889 8.8465 4.2678L8.84263 4.26786L8.83834 4.26792C7.7501 4.28465 6.51785 4.30358 5.66071 5.16071C4.81532 6.00611 4.79074 7.21642 4.76886 8.29355C4.76852 8.30994 4.76819 8.3263 4.76786 8.34263L4.7678 8.34609C4.75889 8.93095 4.7497 9.5342 4.59821 9.89844C4.43462 10.2946 4.00139 10.7474 3.58176 11.1859L3.57812 11.1897C2.83817 11.9598 2 12.8348 2 14C2 15.1652 2.83817 16.0391 3.57812 16.8103L3.58781 16.8204C4.00555 17.2569 4.43541 17.7062 4.59821 18.1016L25.4219 16.8103ZM25.4219 16.8103L25.4182 16.8141C24.9986 17.2526 24.5654 17.7054 24.4018 18.1016M25.4219 16.8103L18.3636 23.3239C18.6385 23.21 18.9597 23.1641 19.2451 23.1405C19.5353 23.1165 19.8494 23.1118 20.1336 23.1074L20.1478 23.1072C20.1478 23.1072 20.1478 23.1072 20.1478 23.1072C21.2936 23.0896 22.2481 23.0466 22.8973 22.3973C23.5466 21.7481 23.5896 20.7936 23.6072 19.6478C23.6072 19.6478 23.6072 19.6478 23.6072 19.6478L23.6074 19.6336C23.6118 19.3494 23.6165 19.0353 23.6405 18.7451C23.6641 18.4595 23.71 18.138 23.8241 17.863C23.8243 17.8625 23.8245 17.862 23.8247 17.8616L24.4018 18.1016M24.4018 18.1016C24.2503 18.4658 24.2411 19.069 24.2322 19.6539L24.2321 19.6574L24.4018 18.1016ZM11.6404 18.6448C11.7814 18.7859 11.9488 18.8979 12.133 18.9743C12.3173 19.0507 12.5148 19.09 12.7143 19.09C12.9137 19.09 13.1113 19.0507 13.2955 18.9743C13.4797 18.8979 13.647 18.7861 13.7879 18.6451C13.788 18.645 13.7881 18.6449 13.7882 18.6448L20.0379 12.3951C20.1789 12.2541 20.2908 12.0867 20.3671 11.9025C20.4434 11.7183 20.4826 11.5208 20.4826 11.3214C20.4826 11.122 20.4434 10.9246 20.3671 10.7404C20.2908 10.5562 20.1789 10.3888 20.0379 10.2478C19.8969 10.1068 19.7295 9.99496 19.5453 9.91865C19.3611 9.84235 19.1637 9.80308 18.9643 9.80308C18.7649 9.80308 18.5675 9.84235 18.3832 9.91865C18.199 9.99496 18.0316 10.1068 17.8906 10.2478L17.8906 10.2478L12.7144 15.4251L11.1095 13.8193L11.1094 13.8192C10.8246 13.5345 10.4384 13.3745 10.0357 13.3745C9.63302 13.3745 9.24682 13.5345 8.96208 13.8192C8.67733 14.104 8.51736 14.4902 8.51736 14.8929C8.51736 15.2955 8.67733 15.6817 8.96208 15.9665L11.6404 18.6448ZM11.6404 18.6448L12.0826 18.2031M11.6404 18.6448L11.6406 18.6451L12.0826 18.2031M12.0826 18.2031L9.40402 15.5246C9.23648 15.357 9.14236 15.1298 9.14236 14.8929C9.14236 14.6559 9.23648 14.4287 9.40402 14.2612C9.57155 14.0936 9.79878 13.9995 10.0357 13.9995C10.2726 13.9995 10.4999 14.0936 10.6674 14.2612L18.3326 10.6897C18.4155 10.6068 18.514 10.541 18.6224 10.4961C18.7308 10.4512 18.847 10.4281 18.9643 10.4281C19.0816 10.4281 19.1978 10.4512 19.3062 10.4961C19.4145 10.541 19.513 10.6068 19.596 10.6897C19.6789 10.7727 19.7447 10.8712 19.7896 10.9796C19.8345 11.0879 19.8576 11.2041 19.8576 11.3214C19.8576 11.4387 19.8345 11.5549 19.7896 11.6633C19.7447 11.7717 19.6789 11.8702 19.596 11.9531L13.346 18.2031C13.2631 18.2861 13.1646 18.352 13.0562 18.3969C12.9478 18.4419 12.8316 18.465 12.7143 18.465C12.597 18.465 12.4808 18.4419 12.3724 18.3969C12.264 18.352 12.1655 18.2861 12.0826 18.2031ZM24.9703 11.6218L24.9709 11.6224L11.6859 24.9182C11.2474 24.4986 10.7946 24.0654 10.3984 23.9018L10.6384 23.3247C10.638 23.3245 10.6375 23.3243 10.637 23.3241C10.362 23.21 10.0405 23.1641 9.75488 23.1405C9.46472 23.1165 9.15059 23.1118 8.8664 23.1074L8.85224 23.1072C8.85221 23.1072 8.85218 23.1072 8.85216 23.1072C7.70642 23.0896 6.75194 23.0466 6.10266 22.3973C5.45337 21.7481 5.41039 20.7936 5.39278 19.6478C5.39278 19.6478 5.39278 19.6478 5.39278 19.6478L5.39257 19.6335C5.38824 19.3494 5.38346 19.0353 5.35948 18.7451C5.33589 18.4597 5.29003 18.1385 5.17614 17.8636C5.05726 17.5749 4.85821 17.3034 4.66434 17.071C4.47137 16.8397 4.24841 16.6067 4.0461 16.3953L4.0297 16.3782L4.02911 16.3776C3.24817 15.5636 2.625 14.8708 2.625 14C2.625 13.1292 3.2484 12.4349 4.0288 11.6228L4.0297 11.6218L4.04073 11.6103C4.24471 11.3971 4.46979 11.1619 4.66447 10.9284C4.85805 10.6962 5.05674 10.4252 5.1756 10.1377C5.28988 9.86255 5.33586 9.54077 5.35948 9.25488C5.38346 8.96475 5.38824 8.65063 5.39257 8.36645L5.39276 8.35384C5.41637 7.2026 5.45373 6.25159 6.10266 5.60266C6.75194 4.95337 7.70642 4.91039 8.85216 4.89278C8.85218 4.89278 8.85221 4.89278 8.85224 4.89278L8.8668 4.89256C9.15089 4.88824 9.4654 4.88345 9.75567 4.85949C10.0411 4.83593 10.3633 4.79006 10.6381 4.67545C10.9261 4.5565 11.1971 4.35783 11.429 4.16434C11.6603 3.97136 11.8933 3.7484 12.1047 3.54609L12.1218 3.5297L12.1224 3.52911C12.9364 2.74817 13.6292 2.125 14.5 2.125C15.3708 2.125 16.0651 2.7484 16.8772 3.5288L16.8782 3.5297L16.8897 3.54071C17.1029 3.7447 17.3381 3.96978 17.5716 4.16447C17.8038 4.35805 18.0748 4.55674 18.3623 4.6756C18.6375 4.78989 18.9592 4.83586 19.2451 4.85948C19.5353 4.88346 19.8494 4.88824 20.1335 4.89257L20.1478 4.89278C20.1478 4.89278 20.1478 4.89278 20.1478 4.89278C21.2936 4.91039 22.2481 4.95337 22.8973 5.60266C23.5466 6.25194 23.5896 7.20642 23.6072 8.35216C23.6072 8.35218 23.6072 8.35221 23.6072 8.35224L23.6074 8.3664C23.6118 8.65059 23.6165 8.96472 23.6405 9.25488C23.6641 9.54032 23.71 9.86153 23.8239 10.1364C23.9427 10.4251 24.1418 10.6966 24.3357 10.929C24.5287 11.1603 24.7516 11.3933 24.9539 11.6047L24.9703 11.6218Z" stroke="white" stroke-width="1.25"/>
</g>
<defs>
<filter id="filter0_ddddd_4117_196" x="0.125" y="0.875" width="28.75" height="35" filterUnits="userSpaceOnUse" color-interpolation-filters="sRGB">
<feFlood flood-opacity="0" result="BackgroundImageFix"/>
<feColorMatrix in="SourceAlpha" type="matrix" values="0 0 0 0 0 0 0 0 0 0 0 0 0 0 0 0 0 0 127 0" result="hardAlpha"/>
<feOffset/>
<feGaussianBlur stdDeviation="0.3125"/>
<feColorMatrix type="matrix" values="0 0 0 0 0 0 0 0 0 0 0 0 0 0 0 0 0 0 0.29 0"/>
<feBlend mode="normal" in2="BackgroundImageFix" result="effect1_dropShadow_4117_196"/>
<feColorMatrix in="SourceAlpha" type="matrix" values="0 0 0 0 0 0 0 0 0 0 0 0 0 0 0 0 0 0 127 0" result="hardAlpha"/>
<feOffset dy="1.25"/>
<feGaussianBlur stdDeviation="0.625"/>
<feColorMatrix type="matrix" values="0 0 0 0 0 0 0 0 0 0 0 0 0 0 0 0 0 0 0.26 0"/>
<feBlend mode="normal" in2="effect1_dropShadow_4117_196" result="effect2_dropShadow_4117_196"/>
<feColorMatrix in="SourceAlpha" type="matrix" values="0 0 0 0 0 0 0 0 0 0 0 0 0 0 0 0 0 0 127 0" result="hardAlpha"/>
<feOffset dy="2.5"/>
<feGaussianBlur stdDeviation="0.9375"/>
<feColorMatrix type="matrix" values="0 0 0 0 0 0 0 0 0 0 0 0 0 0 0 0 0 0 0.15 0"/>
<feBlend mode="normal" in2="effect2_dropShadow_4117_196" result="effect3_dropShadow_4117_196"/>
<feColorMatrix in="SourceAlpha" type="matrix" values="0 0 0 0 0 0 0 0 0 0 0 0 0 0 0 0 0 0 127 0" result="hardAlpha"/>
<feOffset dy="5"/>
<feGaussianBlur stdDeviation="0.9375"/>
<feColorMatrix type="matrix" values="0 0 0 0 0 0 0 0 0 0 0 0 0 0 0 0 0 0 0.04 0"/>
<feBlend mode="normal" in2="effect3_dropShadow_4117_196" result="effect4_dropShadow_4117_196"/>
<feColorMatrix in="SourceAlpha" type="matrix" values="0 0 0 0 0 0 0 0 0 0 0 0 0 0 0 0 0 0 127 0" result="hardAlpha"/>
<feOffset dy="7.5"/>
<feGaussianBlur stdDeviation="0.9375"/>
<feColorMatrix type="matrix" values="0 0 0 0 0 0 0 0 0 0 0 0 0 0 0 0 0 0 0.01 0"/>
<feBlend mode="normal" in2="effect4_dropShadow_4117_196" result="effect5_dropShadow_4117_196"/>
<feBlend mode="normal" in="SourceGraphic" in2="effect5_dropShadow_4117_196" result="shape"/>
</filter>
</defs>
</svg>
