<svg width="28" height="32" viewBox="0 0 28 32" fill="none" xmlns="http://www.w3.org/2000/svg">
<g filter="url(#filter0_ddddd_4110_387)">
<path d="M23.8985 7.05113H19.9523C19.9962 7.01401 20.0412 6.97801 20.0839 6.93864C20.4256 6.63511 20.7009 6.26435 20.8927 5.84955C21.0846 5.43475 21.1887 4.98483 21.1987 4.52793C21.2135 4.0281 21.126 3.53052 20.9415 3.06574C20.757 2.60097 20.4795 2.1788 20.1259 1.82516C19.7724 1.47151 19.3503 1.19386 18.8856 1.00925C18.4209 0.824628 17.9233 0.736942 17.4235 0.751571C16.9664 0.761416 16.5163 0.865508 16.1013 1.05733C15.6863 1.24916 15.3153 1.52458 15.0117 1.86637C14.5915 2.35334 14.2499 2.90292 13.9992 3.49525C13.7486 2.90292 13.407 2.35334 12.9868 1.86637C12.6831 1.52458 12.3122 1.24916 11.8972 1.05733C11.4822 0.865508 11.0321 0.761416 10.575 0.751571C10.0751 0.736942 9.57758 0.824628 9.11286 1.00925C8.64814 1.19386 8.22605 1.47151 7.87251 1.82516C7.51898 2.1788 7.24145 2.60097 7.05697 3.06574C6.87249 3.53052 6.78496 4.0281 6.79973 4.52793C6.80973 4.98483 6.9139 5.43475 7.10572 5.84955C7.29754 6.26435 7.57288 6.63511 7.91453 6.93864C7.95728 6.97576 8.00228 7.01176 8.04615 7.05113H4.09992C3.62257 7.05113 3.16476 7.24076 2.82722 7.5783C2.48968 7.91584 2.30005 8.37365 2.30005 8.851V12.4508C2.30005 12.9281 2.48968 13.3859 2.82722 13.7235C3.16476 14.061 3.62257 14.2506 4.09992 14.2506V21.4501C4.09992 21.9275 4.28955 22.3853 4.62709 22.7228C4.96464 23.0604 5.42244 23.25 5.8998 23.25H12.6493C12.7687 23.25 12.8831 23.2026 12.9675 23.1182C13.0519 23.0338 13.0993 22.9194 13.0993 22.8V12.4508H4.09992V8.851H13.0993V12.4508H14.8992V8.851H23.8985V12.4508H14.8992V22.8C14.8992 22.9194 14.9466 23.0338 15.031 23.1182C15.1153 23.2026 15.2298 23.25 15.3491 23.25H22.0987C22.576 23.25 23.0338 23.0604 23.3714 22.7228C23.7089 22.3853 23.8985 21.9275 23.8985 21.4501V14.2506C24.3759 14.2506 24.8337 14.061 25.1712 13.7235C25.5088 13.3859 25.6984 12.9281 25.6984 12.4508V8.851C25.6984 8.37365 25.5088 7.91584 25.1712 7.5783C24.8337 7.24076 24.3759 7.05113 23.8985 7.05113ZM9.10695 5.58873C8.94959 5.44624 8.8234 5.27276 8.73629 5.07917C8.64917 4.88559 8.60302 4.67608 8.60073 4.46381C8.59504 4.21509 8.63905 3.96774 8.73018 3.73625C8.8213 3.50476 8.95771 3.29378 9.13141 3.11568C9.30511 2.93757 9.51262 2.79593 9.74176 2.69904C9.9709 2.60216 10.2171 2.55198 10.4659 2.55144H10.521C10.7332 2.55373 10.9427 2.59988 11.1363 2.687C11.3299 2.77411 11.5034 2.90031 11.6459 3.05766C12.5897 4.12409 12.9227 5.89246 13.0397 6.98589C11.9417 6.87002 10.1745 6.53704 9.10695 5.58873ZM18.8938 5.58873C17.8262 6.53367 16.0545 6.86664 14.9565 6.98364C15.0904 5.80134 15.4616 4.07009 16.3616 3.05878C16.5041 2.90143 16.6775 2.77524 16.8711 2.68812C17.0647 2.60101 17.2742 2.55486 17.4865 2.55257H17.5416C17.7904 2.55412 18.0364 2.60532 18.2651 2.70316C18.4939 2.80101 18.7008 2.94352 18.8738 3.12236C19.0468 3.3012 19.1823 3.51276 19.2725 3.74465C19.3626 3.97655 19.4056 4.2241 19.3989 4.47281C19.3952 4.68364 19.3483 4.89147 19.261 5.08343C19.1737 5.27538 19.048 5.44737 18.8915 5.58873H18.8938Z" fill="#D658B3"/>
<path d="M7.97581 4.4744C7.97955 4.7715 8.04439 5.06467 8.16634 5.33565C8.2888 5.6078 8.46621 5.85169 8.68743 6.05201L8.68741 6.05203L8.69187 6.056C9.31994 6.61391 10.1241 6.96796 10.8804 7.19753C11.643 7.42902 12.4011 7.54697 12.9741 7.60743L13.7434 7.68863L13.6611 6.91939C13.6001 6.34909 13.4819 5.5922 13.251 4.83034C13.022 4.07496 12.6693 3.27096 12.1139 2.64344L12.114 2.64342L12.1092 2.63814C11.9089 2.41692 11.665 2.23951 11.3928 2.11705C11.1207 1.99458 10.8261 1.9297 10.5277 1.92648V1.92644H10.521L10.4659 1.92644L10.4645 1.92645C10.1326 1.92716 9.8041 1.99411 9.49836 2.12339C9.19261 2.25266 8.91575 2.44166 8.68398 2.6793C8.45221 2.91694 8.2702 3.19844 8.14861 3.50732C8.02748 3.81505 7.96874 4.14379 7.97581 4.4744ZM7.97581 4.4744C7.9758 4.47312 7.97578 4.47184 7.97577 4.47055L8.60072 4.46381L7.9759 4.4781C7.97587 4.47687 7.97584 4.47564 7.97581 4.4744ZM19.5486 6.57401L18.2461 7.67613H19.9523H23.8985C24.2101 7.67613 24.509 7.79991 24.7293 8.02024C24.9496 8.24058 25.0734 8.53941 25.0734 8.851V12.4508C25.0734 12.7623 24.9496 13.0612 24.7293 13.2815C24.509 13.5018 24.2101 13.6256 23.8985 13.6256H23.2735V14.2506V21.4501C23.2735 21.7617 23.1498 22.0606 22.9294 22.2809C22.7091 22.5012 22.4103 22.625 22.0987 22.625H15.5242V13.0758H23.8985H24.5235V12.4508V8.851V8.22601H23.8985H14.8992H14.2742V8.851V11.8258H13.7243V8.851V8.22601H13.0993H4.09992H3.47492V8.851V12.4508V13.0758H4.09992H12.4743V22.625H5.8998C5.5882 22.625 5.28937 22.5012 5.06904 22.2809C4.8487 22.0606 4.72492 21.7617 4.72492 21.4501V14.2506V13.6256H4.09992C3.78833 13.6256 3.48949 13.5018 3.26916 13.2815C3.04883 13.0612 2.92505 12.7623 2.92505 12.4508V8.851C2.92505 8.53941 3.04883 8.24058 3.26916 8.02024C3.48949 7.79991 3.78833 7.67613 4.09992 7.67613H8.04615H9.67833L8.46359 6.58598C8.43336 6.55885 8.37151 6.50662 8.34126 6.48108C8.33431 6.47521 8.32903 6.47075 8.32619 6.46833C8.05041 6.22248 7.82808 5.92258 7.673 5.58722C7.51727 5.25046 7.4327 4.88519 7.42458 4.51426L7.4246 4.51426L7.42446 4.50946C7.4122 4.09476 7.48483 3.68193 7.63789 3.29632C7.79094 2.9107 8.0212 2.56044 8.31452 2.26703C8.60784 1.97362 8.95804 1.74326 9.34361 1.59009C9.72918 1.43692 10.142 1.36417 10.5567 1.37632L10.5615 1.37643C10.9326 1.38442 11.298 1.46893 11.635 1.62466C11.9706 1.77977 12.2706 2.00222 12.5166 2.27817C12.8929 2.71503 13.1989 3.20781 13.4236 3.73883L13.9992 5.09899L14.5748 3.73883C14.7995 3.20782 15.1055 2.71505 15.4818 2.2782C15.7278 2.00224 16.0279 1.77978 16.3635 1.62466C16.7004 1.46893 17.0659 1.38442 17.437 1.37644L17.4418 1.3763C17.8565 1.36417 18.2693 1.43692 18.6549 1.59009C19.0404 1.74326 19.3906 1.97362 19.6839 2.26703C19.9773 2.56044 20.2075 2.9107 20.3606 3.29632C20.5136 3.68193 20.5863 4.09476 20.574 4.50946L20.5739 4.51426C20.5706 4.66554 20.5545 4.81588 20.5262 4.96373H19.9613C19.9997 4.80793 20.0207 4.64795 20.0237 4.4867C20.0323 4.15587 19.9749 3.82664 19.855 3.51817C19.7347 3.20876 19.5538 2.92647 19.323 2.68785C19.0923 2.44923 18.8162 2.25907 18.5109 2.12852C18.2057 1.99797 17.8775 1.92966 17.5455 1.92758V1.92757H17.5416H17.4865V1.92753L17.4797 1.92761C17.1813 1.93082 16.8868 1.99571 16.6146 2.11817C16.3425 2.24064 16.0986 2.41805 15.8983 2.63926L15.8983 2.63925L15.8947 2.6433C15.3621 3.24179 15.0106 4.0211 14.7755 4.76983C14.5381 5.5256 14.4055 6.2954 14.3355 6.91332L14.2478 7.68769L15.0228 7.60512C15.5953 7.54411 16.3542 7.42592 17.1176 7.19486C17.8745 6.96577 18.6798 6.61279 19.308 6.05673L20.5227 4.98159C20.4812 5.19001 20.4151 5.39334 20.3255 5.58722C20.1697 5.92397 19.9462 6.22498 19.6688 6.4714L19.6688 6.47132L19.6605 6.47892C19.6415 6.49644 19.6263 6.50908 19.6021 6.52924C19.5881 6.54087 19.5711 6.555 19.5486 6.57401ZM10.575 0.751642L10.575 0.751571L10.575 0.751642Z" stroke="white" stroke-width="1.25"/>
</g>
<defs>
<filter id="filter0_ddddd_4110_387" x="0.425049" y="0.125" width="27.1484" height="32.5" filterUnits="userSpaceOnUse" color-interpolation-filters="sRGB">
<feFlood flood-opacity="0" result="BackgroundImageFix"/>
<feColorMatrix in="SourceAlpha" type="matrix" values="0 0 0 0 0 0 0 0 0 0 0 0 0 0 0 0 0 0 127 0" result="hardAlpha"/>
<feOffset/>
<feGaussianBlur stdDeviation="0.3125"/>
<feColorMatrix type="matrix" values="0 0 0 0 0 0 0 0 0 0 0 0 0 0 0 0 0 0 0.29 0"/>
<feBlend mode="normal" in2="BackgroundImageFix" result="effect1_dropShadow_4110_387"/>
<feColorMatrix in="SourceAlpha" type="matrix" values="0 0 0 0 0 0 0 0 0 0 0 0 0 0 0 0 0 0 127 0" result="hardAlpha"/>
<feOffset dy="1.25"/>
<feGaussianBlur stdDeviation="0.625"/>
<feColorMatrix type="matrix" values="0 0 0 0 0 0 0 0 0 0 0 0 0 0 0 0 0 0 0.26 0"/>
<feBlend mode="normal" in2="effect1_dropShadow_4110_387" result="effect2_dropShadow_4110_387"/>
<feColorMatrix in="SourceAlpha" type="matrix" values="0 0 0 0 0 0 0 0 0 0 0 0 0 0 0 0 0 0 127 0" result="hardAlpha"/>
<feOffset dy="2.5"/>
<feGaussianBlur stdDeviation="0.9375"/>
<feColorMatrix type="matrix" values="0 0 0 0 0 0 0 0 0 0 0 0 0 0 0 0 0 0 0.15 0"/>
<feBlend mode="normal" in2="effect2_dropShadow_4110_387" result="effect3_dropShadow_4110_387"/>
<feColorMatrix in="SourceAlpha" type="matrix" values="0 0 0 0 0 0 0 0 0 0 0 0 0 0 0 0 0 0 127 0" result="hardAlpha"/>
<feOffset dy="5"/>
<feGaussianBlur stdDeviation="0.9375"/>
<feColorMatrix type="matrix" values="0 0 0 0 0 0 0 0 0 0 0 0 0 0 0 0 0 0 0.04 0"/>
<feBlend mode="normal" in2="effect3_dropShadow_4110_387" result="effect4_dropShadow_4110_387"/>
<feColorMatrix in="SourceAlpha" type="matrix" values="0 0 0 0 0 0 0 0 0 0 0 0 0 0 0 0 0 0 127 0" result="hardAlpha"/>
<feOffset dy="7.5"/>
<feGaussianBlur stdDeviation="0.9375"/>
<feColorMatrix type="matrix" values="0 0 0 0 0 0 0 0 0 0 0 0 0 0 0 0 0 0 0.01 0"/>
<feBlend mode="normal" in2="effect4_dropShadow_4110_387" result="effect5_dropShadow_4110_387"/>
<feBlend mode="normal" in="SourceGraphic" in2="effect5_dropShadow_4110_387" result="shape"/>
</filter>
</defs>
</svg>
